<svg width="28" height="28" viewBox="0 0 28 28" fill="none" xmlns="http://www.w3.org/2000/svg">
<path d="M21.7627 27.4922L6.76268 27.5064C3.46268 27.5094 0.760434 24.8124 0.756684 21.5124L0.742434 6.51244C0.739434 3.21244 3.43643 0.51019 6.73643 0.50644L21.7364 0.49219C25.0364 0.48919 27.7387 3.18619 27.7424 6.48619L27.7567 21.4862C27.7604 24.7869 25.0627 27.4892 21.7627 27.4922Z" fill="url(#paint0_radial)"/>
<path d="M21.7627 27.4922L6.76268 27.5064C3.46268 27.5094 0.760434 24.8124 0.756684 21.5124L0.742434 6.51244C0.739434 3.21244 3.43643 0.51019 6.73643 0.50644L21.7364 0.49219C25.0364 0.48919 27.7387 3.18619 27.7424 6.48619L27.7567 21.4862C27.7604 24.7869 25.0627 27.4892 21.7627 27.4922Z" fill="url(#paint1_radial)"/>
<path fill-rule="evenodd" clip-rule="evenodd" d="M9 14C9 16.895 11.3558 19.25 14.25 19.25C17.1442 19.25 19.5 16.895 19.5 14C19.5 11.105 17.1442 8.75 14.25 8.75C11.3558 8.75 9 11.105 9 14ZM10.5 14C10.5 11.9323 12.1823 10.25 14.25 10.25C16.3177 10.25 18 11.9323 18 14C18 16.0677 16.3177 17.75 14.25 17.75C12.1823 17.75 10.5 16.0677 10.5 14Z" fill="white"/>
<circle cx="19.875" cy="8.375" r="1.125" fill="white"/>
<path fill-rule="evenodd" clip-rule="evenodd" d="M9.75 23.75H18.75C21.6442 23.75 24 21.395 24 18.5V9.5C24 6.605 21.6442 4.25 18.75 4.25H9.75C6.85575 4.25 4.5 6.605 4.5 9.5V18.5C4.5 21.395 6.85575 23.75 9.75 23.75ZM6 9.5C6 7.43225 7.68225 5.75 9.75 5.75H18.75C20.8177 5.75 22.5 7.43225 22.5 9.5V18.5C22.5 20.5677 20.8177 22.25 18.75 22.25H9.75C7.68225 22.25 6 20.5677 6 18.5V9.5Z" fill="white"/>
<defs>
<radialGradient id="paint0_radial" cx="0" cy="0" r="1" gradientUnits="userSpaceOnUse" gradientTransform="translate(10.7849 27.5259) scale(33.6742)">
<stop stop-color="#FFDD55"/>
<stop offset="0.328" stop-color="#FF543F"/>
<stop offset="0.348" stop-color="#FC5245"/>
<stop offset="0.504" stop-color="#E64771"/>
<stop offset="0.643" stop-color="#D53E91"/>
<stop offset="0.761" stop-color="#CC39A4"/>
<stop offset="0.841" stop-color="#C837AB"/>
</radialGradient>
<radialGradient id="paint1_radial" cx="0" cy="0" r="1" gradientUnits="userSpaceOnUse" gradientTransform="translate(5.08943 0.154918) scale(22.3598)">
<stop stop-color="#4168C9"/>
<stop offset="0.999" stop-color="#4168C9" stop-opacity="0.01"/>
</radialGradient>
</defs>
</svg>
