<svg width="33" height="26" viewBox="0 0 33 26" fill="none" xmlns="http://www.w3.org/2000/svg">
<path d="M32.3287 3.265C31.1654 3.78025 29.9144 4.12375 28.5944 4.2865C29.9362 3.49 30.9689 2.2195 31.4534 0.718C30.1979 1.45375 28.8067 1.9945 27.3269 2.2795C26.1449 1.027 24.4589 0.25 22.5914 0.25C19.0042 0.25 16.0957 3.13225 16.0957 6.6865C16.0957 7.18975 16.1549 7.6795 16.2652 8.155C10.8682 7.88425 6.08093 5.3185 2.87843 1.4245C2.31593 2.37625 1.99943 3.49 1.99943 4.666C1.99943 6.90025 3.14318 8.8675 4.88768 10.0262C3.82268 9.994 2.82068 9.69775 1.94318 9.22225C1.94318 9.24175 1.94318 9.27025 1.94318 9.298C1.94318 12.4202 4.18268 15.0205 7.15118 15.6123C6.60893 15.7608 6.03518 15.8433 5.44418 15.8433C5.02493 15.8433 4.61618 15.796 4.22018 15.7247C5.04668 18.2762 7.44443 20.1415 10.2854 20.197C8.06243 21.9205 5.26268 22.9525 2.21843 22.9525C1.69268 22.9525 1.17818 22.9225 0.669678 22.861C3.54743 24.6828 6.96218 25.75 10.6282 25.75C22.5734 25.75 29.1089 15.9408 29.1089 7.4305C29.1089 7.1515 29.0999 6.874 29.0872 6.5995C30.3622 5.69875 31.4609 4.56325 32.3287 3.265Z" fill="url(#paint0_linear)"/>
<defs>
<linearGradient id="paint0_linear" x1="-8.6743" y1="10.4334" x2="8.52185" y2="36.9395" gradientUnits="userSpaceOnUse">
<stop stop-color="#2AA4F4"/>
<stop offset="1" stop-color="#007AD9"/>
</linearGradient>
</defs>
</svg>
